<?xml version="1.0" encoding="UTF-8"?>
<svg id="_레이어_2" data-name="레이어 2" xmlns="http://www.w3.org/2000/svg" viewBox="0 0 1299.27 1299.27">
  <defs>
    <style>
      .cls-1 {
        fill: none;
        stroke: #000;
        stroke-miterlimit: 10;
      }
    </style>
  </defs>
  <g id="_레이어_1-2" data-name="레이어 1">
    <g>
      <circle class="cls-1" cx="54.36" cy="649.63" r="4.25"/>
      <circle class="cls-1" cx="1244.94" cy="649.63" r="4.25"/>
      <circle class="cls-1" cx="649.65" cy="1244.92" r="4.25"/>
      <circle class="cls-1" cx="649.65" cy="54.34" r="4.25"/>
      <rect class="cls-1" x="284.69" y="293.2" width="28.35" height="11.34" transform="translate(298.86 -123.79) rotate(45)"/>
      <circle class="cls-1" cx="649.63" cy="26.01" r="4.25"/>
      <circle class="cls-1" cx="26.01" cy="649.63" r="4.25"/>
      <circle class="cls-1" cx="649.63" cy="1273.26" r="4.25"/>
      <circle class="cls-1" cx="1273.26" cy="649.63" r="4.25"/>
      <rect class="cls-1" x="986.23" y="994.73" width="28.35" height="11.34" transform="translate(1000.4034 -414.3807) rotate(45)"/>
      <rect class="cls-1" x="284.69" y="994.73" width="28.35" height="11.34" transform="translate(-619.86 504.34) rotate(-45)"/>
      <path class="cls-1" d="M1026.46,1034.48l8.02-8.02,78.15,78.15c115.12-117.14,186.14-277.76,186.14-454.97,0-177.21-71.02-337.84-186.14-454.97l-78.15,78.15-8.02-8.02,78.15-78.15C987.47,71.52,826.85.5,649.63.5c-177.21,0-337.84,71.02-454.97,186.14l78.15,78.15-8.02,8.02-78.15-78.15C71.52,311.8.5,472.42.5,649.63c0,177.21,71.02,337.84,186.14,454.97l78.15-78.15,8.02,8.02-78.15,78.15c117.14,115.12,277.76,186.14,454.97,186.14,177.21,0,337.84-71.02,454.97-186.14l-78.15-78.15Z"/>
      <rect class="cls-1" x="986.23" y="293.2" width="28.35" height="11.34" transform="translate(81.68 794.93) rotate(-45)"/>
      <circle class="cls-1" cx="410.98" cy="73.74" r="4.25"/>
      <circle class="cls-1" cx="73.48" cy="888.54" r="4.25"/>
      <circle class="cls-1" cx="888.28" cy="1226.04" r="4.25"/>
      <circle class="cls-1" cx="1225.79" cy="411.24" r="4.25"/>
      <circle class="cls-1" cx="888.28" cy="73.48" r="4.25"/>
      <circle class="cls-1" cx="73.48" cy="410.98" r="4.25"/>
      <circle class="cls-1" cx="410.98" cy="1225.79" r="4.25"/>
      <circle class="cls-1" cx="1225.79" cy="888.28" r="4.25"/>
    </g>
  </g>
</svg>