<?xml version="1.0" encoding="UTF-8"?>
<svg id="_레이어_2" data-name="레이어 2" xmlns="http://www.w3.org/2000/svg" viewBox="0 0 1248.24 1248.24">
  <defs>
    <style>
      .cls-1 {
        fill: none;
        stroke: #000;
        stroke-miterlimit: 10;
      }
    </style>
  </defs>
  <g id="_레이어_1-2" data-name="레이어 1">
    <path class="cls-1" d="M1065.09,183.15c-243.54-243.54-638.4-243.54-881.93,0-243.54,243.54-243.54,638.4,0,881.93s638.4,243.54,881.93,0c243.54-243.54,243.54-638.4,0-881.93ZM86.96,631.21H27.43v-14.17h59.53v14.17ZM1042.06,200.17c1.66-1.66,4.35-1.66,6.01,0,1.66,1.66,1.66,4.35,0,6.01-1.66,1.66-4.35,1.66-6.01,0-1.66-1.66-1.66-4.35,0-6.01ZM617.04,27.43h14.17v59.53h-14.17V27.43ZM617.04,197.51h14.17v59.53h-14.17s0-59.53,0-59.53ZM200.19,200.17c1.66-1.66,4.35-1.66,6.01,0,1.66,1.66,1.66,4.35,0,6.01s-4.35,1.66-6.01,0c-1.66-1.66-1.66-4.35,0-6.01ZM206.21,1048.05c-1.66,1.66-4.35,1.66-6.01,0s-1.66-4.35,0-6.01c1.66-1.66,4.35-1.66,6.01,0s1.66,4.35,0,6.01ZM257.04,631.21h-59.53s0-14.17,0-14.17h59.53v14.17ZM289.39,970.88c-3.32,3.32-8.71,3.32-12.03,0-3.32-3.32-3.32-8.71,0-12.03,3.32-3.32,8.71-3.32,12.03,0,3.32,3.32,3.32,8.71,0,12.03ZM289.39,289.37c-3.32,3.32-8.71,3.32-12.03,0-3.32-3.32-3.32-8.71,0-12.03,3.32-3.32,8.71-3.32,12.03,0,3.32,3.32,3.32,8.71,0,12.03ZM631.21,1220.82h-14.17s0-59.53,0-59.53h14.17v59.53ZM631.21,1050.74h-14.17v-59.53h14.17s0,59.53,0,59.53ZM694.28,694.28c-38.74,38.74-101.56,38.74-140.31,0-38.74-38.75-38.74-101.56,0-140.31,38.74-38.74,101.56-38.74,140.31,0,38.74,38.74,38.74,101.56,0,140.31ZM970.9,970.88c-3.32,3.32-8.71,3.32-12.03,0-3.32-3.32-3.32-8.71,0-12.03,3.32-3.32,8.71-3.32,12.03,0,3.32,3.32,3.32,8.71,0,12.03ZM970.9,289.37c-3.32,3.32-8.71,3.32-12.03,0s-3.32-8.71,0-12.03c3.32-3.32,8.71-3.32,12.03,0,3.32,3.32,3.32,8.71,0,12.03ZM1048.07,1048.05c-1.66,1.66-4.35,1.66-6.01,0-1.66-1.66-1.66-4.35,0-6.01,1.66-1.66,4.35-1.66,6.01,0,1.66,1.66,1.66,4.35,0,6.01ZM1050.74,631.21h-59.53s0-14.17,0-14.17h59.53v14.17ZM1161.29,631.21v-14.17h59.53v14.17h-59.53ZM508.72,423.68c0,46.97-38.07,85.04-85.04,85.04-46.97,0-85.04-38.07-85.04-85.04,0-46.97,38.07-85.04,85.04-85.04,46.97,0,85.04,38.07,85.04,85.04ZM909.6,824.56c0,46.97-38.07,85.04-85.04,85.04-46.97,0-85.04-38.07-85.04-85.04s38.07-85.04,85.04-85.04c46.97,0,85.04,38.07,85.04,85.04ZM423.68,739.52c46.97,0,85.04,38.07,85.04,85.04,0,46.97-38.07,85.04-85.04,85.04-46.97,0-85.04-38.07-85.04-85.04s38.07-85.04,85.04-85.04ZM824.56,338.64c46.97,0,85.04,38.07,85.04,85.04,0,46.97-38.07,85.04-85.04,85.04-46.97,0-85.04-38.07-85.04-85.04,0-46.97,38.07-85.04,85.04-85.04Z"/>
  </g>
</svg>