<?xml version="1.0" encoding="UTF-8"?>
<svg id="_레이어_2" data-name="레이어 2" xmlns="http://www.w3.org/2000/svg" viewBox="0 0 718.01 711.16">
  <defs>
    <style>
      .cls-1 {
        fill: none;
        stroke: #000;
        stroke-miterlimit: 10;
      }
    </style>
  </defs>
  <g id="_레이어_1-2" data-name="레이어 1">
    <g>
      <circle class="cls-1" cx="238.74" cy="479.27" r="8.5"/>
      <circle class="cls-1" cx="158.57" cy="559.44" r="8.5"/>
      <circle class="cls-1" cx="479.27" cy="238.74" r="8.5"/>
      <circle class="cls-1" cx="559.45" cy="158.56" r="8.5"/>
      <circle class="cls-1" cx="479.27" cy="479.27" r="8.5"/>
      <circle class="cls-1" cx="559.45" cy="559.44" r="8.5"/>
      <circle class="cls-1" cx="238.74" cy="238.74" r="8.5"/>
      <circle class="cls-1" cx="158.57" cy="158.56" r="8.5"/>
      <path class="cls-1" d="M612.71,366.09v-14.17h104.79C713.77,159.51,558.5,4.24,366.09.51v104.79h-14.17V.51C159.51,4.24,4.24,159.51.51,351.92h104.79v14.17H.51c3.31,170.62,125.77,312.01,287.63,344.46V252.92c42.75-28.63,98.98-28.63,141.73,0v457.63c161.85-32.45,284.32-173.85,287.63-344.46h-104.8Z"/>
    </g>
  </g>
</svg>