<?xml version="1.0" encoding="UTF-8"?>
<svg id="_레이어_2" data-name="레이어 2" xmlns="http://www.w3.org/2000/svg" viewBox="0 0 1075.23 1070.67">
  <defs>
    <style>
      .cls-1 {
        fill: none;
        stroke: #000;
        stroke-miterlimit: 10;
      }
    </style>
  </defs>
  <g id="_레이어_1-2" data-name="레이어 1">
    <path class="cls-1" d="M989.74,540.14v-14.17h84.98c-1.77-135.1-54.19-269.66-157.27-372.75C830.63,66.4,721.48,15.52,608.48.57v152.18c11.55,15.05,18.43,33.88,18.43,54.32s-6.87,39.27-18.43,54.32v377.75c-42.75,28.63-98.98,28.63-141.73,0v-377.75c-11.55-15.05-18.43-33.88-18.43-54.32s6.87-39.27,18.43-54.32V.57c-112.99,14.95-222.14,65.83-308.97,152.65C54.7,256.31,2.28,390.87.51,525.97h84.98v14.17H.51c1.77,135.1,54.19,269.66,157.28,372.75,103.09,103.09,237.65,155.5,372.75,157.28v-84.98h14.17v84.98c135.1-1.77,269.66-54.19,372.75-157.28,103.09-103.09,155.5-237.65,157.27-372.75h-84.98ZM196.87,183.81c4.7,0,8.5,3.81,8.5,8.5s-3.81,8.5-8.5,8.5-8.5-3.81-8.5-8.5,3.81-8.5,8.5-8.5ZM196.87,882.31c-4.7,0-8.5-3.81-8.5-8.5s3.81-8.5,8.5-8.5,8.5,3.81,8.5,8.5-3.81,8.5-8.5,8.5ZM211.63,622.35c-49.31,0-89.29-39.98-89.29-89.29s39.98-89.29,89.29-89.29,89.29,39.98,89.29,89.29-39.98,89.29-89.29,89.29ZM337.18,742c-4.7,0-8.5-3.81-8.5-8.5s3.81-8.5,8.5-8.5,8.5,3.81,8.5,8.5-3.81,8.5-8.5,8.5ZM337.18,341.12c-4.7,0-8.5-3.81-8.5-8.5s3.81-8.5,8.5-8.5,8.5,3.81,8.5,8.5-3.81,8.5-8.5,8.5ZM537.62,948.33c-49.31,0-89.29-39.98-89.29-89.29s39.98-89.29,89.29-89.29,89.29,39.98,89.29,89.29-39.98,89.29-89.29,89.29ZM878.36,183.81c4.7,0,8.5,3.81,8.5,8.5s-3.81,8.5-8.5,8.5-8.5-3.81-8.5-8.5,3.81-8.5,8.5-8.5ZM738.05,742c-4.7,0-8.5-3.81-8.5-8.5s3.81-8.5,8.5-8.5,8.5,3.81,8.5,8.5-3.81,8.5-8.5,8.5ZM738.05,341.12c-4.7,0-8.5-3.81-8.5-8.5s3.81-8.5,8.5-8.5,8.5,3.81,8.5,8.5-3.81,8.5-8.5,8.5ZM878.36,882.31c-4.7,0-8.5-3.81-8.5-8.5s3.81-8.5,8.5-8.5,8.5,3.81,8.5,8.5-3.81,8.5-8.5,8.5ZM863.6,622.35c-49.31,0-89.29-39.98-89.29-89.29s39.98-89.29,89.29-89.29,89.29,39.98,89.29,89.29-39.98,89.29-89.29,89.29Z"/>
  </g>
</svg>