<?xml version="1.0" encoding="UTF-8"?>
<svg id="_레이어_2" data-name="레이어 2" xmlns="http://www.w3.org/2000/svg" viewBox="0 0 510.73 453.51">
  <defs>
    <style>
      .cls-1 {
        fill: none;
        stroke: #000;
        stroke-miterlimit: 10;
      }
    </style>
  </defs>
  <g id="_레이어_1-2" data-name="레이어 1">
    <path class="cls-1" d="M496.06,380.34v-11.34h0v1.42h-128.98v-8.5h128.98v1.42h0v-175.75h0v1.42h-112.51c-17.16,29.65-49.2,49.61-85.92,49.61s-68.76-19.96-85.92-49.61h-43.06v-8.5h38.67c-5.71-12.53-8.9-26.44-8.9-41.1,0-54.79,44.42-99.21,99.21-99.21s99.21,44.42,99.21,99.21c0,14.66-3.19,28.58-8.9,41.1h108.12v1.42h0V6.17h-240.94s0-5.67,0-5.67h-56.69v5.67H.68c69.95,226.33,259.81,399.99,495.38,446.73v-15.86h14.17v-56.69h-14.17Z"/>
  </g>
</svg>