<?xml version="1.0" encoding="UTF-8"?>
<svg id="_레이어_2" data-name="레이어 2" xmlns="http://www.w3.org/2000/svg" viewBox="0 0 1134.86 454.54">
  <defs>
    <style>
      .cls-1 {
        fill: none;
        stroke: #000;
        stroke-miterlimit: 10;
      }
    </style>
  </defs>
  <g id="_레이어_1-2" data-name="레이어 1">
    <path class="cls-1" d="M1127.27,425.63c-2.36.04-4.72.06-7.09.06-215.61,0-393.72-160.48-421.44-368.5h-3.75v170.08h-7.09V.5h-240.94v226.77h-7.09V57.19h-3.76c-27.72,208.03-205.83,368.5-421.44,368.5-2.37,0-4.73-.03-7.09-.06-2.36.04-4.72.06-7.09.06v28.35h85.04l396.85-14.17v-14.17h79.37v-198.43h11.34v198.43h79.37v14.17l396.85,14.17h85.04v-28.35c-2.37,0-4.73-.03-7.09-.06Z"/>
  </g>
</svg>