<?xml version="1.0" encoding="UTF-8"?>
<svg id="_레이어_2" data-name="레이어 2" xmlns="http://www.w3.org/2000/svg" viewBox="0 0 1083.73 1079.24">
  <defs>
    <style>
      .cls-1 {
        fill: none;
        stroke: #000;
        stroke-miterlimit: 10;
      }
    </style>
  </defs>
  <g id="_레이어_1-2" data-name="레이어 1">
    <g>
      <circle class="cls-1" cx="341.43" cy="742.3" r="8.5"/>
      <circle class="cls-1" cx="201.12" cy="882.61" r="8.5"/>
      <circle class="cls-1" cx="882.61" cy="201.12" r="8.5"/>
      <circle class="cls-1" cx="742.3" cy="341.42" r="8.5"/>
      <circle class="cls-1" cx="742.3" cy="742.3" r="8.5"/>
      <circle class="cls-1" cx="882.61" cy="882.61" r="8.5"/>
      <circle class="cls-1" cx="201.12" cy="201.12" r="8.5"/>
      <circle class="cls-1" cx="341.43" cy="341.42" r="8.5"/>
      <circle class="cls-1" cx="215.88" cy="541.86" r="92.13"/>
      <circle class="cls-1" cx="867.85" cy="541.86" r="92.13"/>
      <circle class="cls-1" cx="541.87" cy="215.88" r="92.13"/>
      <path class="cls-1" d="M993.99,548.95v-14.17h89.23C1079.46,241.39,842.34,4.27,548.95.51v89.23h-14.17V.51C241.39,4.27,4.27,241.39.51,534.78h89.23v14.17H.51c3.49,271.8,207.25,495.3,470.49,529.72v-151.96c-13.27-15.96-21.26-36.48-21.26-58.86s7.99-42.9,21.26-58.86v-373.2c42.75-28.63,98.98-28.63,141.73,0v373.2c13.27,15.96,21.26,36.48,21.26,58.86s-7.99,42.9-21.26,58.86v151.96c263.24-34.42,467-257.92,470.49-529.72h-89.23Z"/>
    </g>
  </g>
</svg>