<?xml version="1.0" encoding="UTF-8"?>
<svg id="_레이어_2" data-name="레이어 2" xmlns="http://www.w3.org/2000/svg" viewBox="0 0 701 693.98">
  <defs>
    <style>
      .cls-1 {
        fill: none;
        stroke: #000;
        stroke-miterlimit: 10;
      }
    </style>
  </defs>
  <g id="_레이어_1-2" data-name="레이어 1">
    <g>
      <circle class="cls-1" cx="230.24" cy="463.75" r="8.5"/>
      <circle class="cls-1" cx="150.06" cy="543.92" r="8.5"/>
      <circle class="cls-1" cx="470.76" cy="223.22" r="8.5"/>
      <circle class="cls-1" cx="550.94" cy="143.04" r="8.5"/>
      <circle class="cls-1" cx="470.76" cy="463.75" r="8.5"/>
      <circle class="cls-1" cx="550.94" cy="543.92" r="8.5"/>
      <circle class="cls-1" cx="230.24" cy="223.22" r="8.5"/>
      <circle class="cls-1" cx="150.06" cy="143.04" r="8.5"/>
      <path class="cls-1" d="M604.2,350.57v-14.17h96.29C697.19,170.49,578.5,32.92,421.37.61v448.95c-42.75,28.63-98.98,28.63-141.73,0V.61C122.5,32.92,3.81,170.49.51,336.4h96.29v14.17H.51c3.73,187.71,155.19,339.17,342.9,342.9v-96.29h14.17v96.29c187.71-3.73,339.17-155.19,342.9-342.9h-96.29Z"/>
    </g>
  </g>
</svg>