<?xml version="1.0" encoding="UTF-8"?>
<svg id="_레이어_2" data-name="레이어 2" xmlns="http://www.w3.org/2000/svg" viewBox="0 0 1299.17 1299.17">
  <defs>
    <style>
      .cls-1 {
        fill: none;
        stroke: #000;
        stroke-miterlimit: 10;
      }
    </style>
  </defs>
  <g id="_레이어_1-2" data-name="레이어 1">
    <g>
      <circle class="cls-1" cx="228.66" cy="1070.51" r="4.25"/>
      <circle class="cls-1" cx="1070.53" cy="228.64" r="4.25"/>
      <circle class="cls-1" cx="1070.53" cy="1070.51" r="4.25"/>
      <circle class="cls-1" cx="228.66" cy="228.64" r="4.25"/>
      <circle class="cls-1" cx="208.62" cy="208.62" r="4.25"/>
      <circle class="cls-1" cx="208.62" cy="1090.55" r="4.25"/>
      <circle class="cls-1" cx="1090.55" cy="1090.55" r="4.25"/>
      <circle class="cls-1" cx="1090.55" cy="208.62" r="4.25"/>
      <circle class="cls-1" cx="73.61" cy="411.12" r="4.25"/>
      <circle class="cls-1" cx="411.12" cy="1225.92" r="4.25"/>
      <circle class="cls-1" cx="1225.92" cy="888.41" r="4.25"/>
      <circle class="cls-1" cx="888.41" cy="73.61" r="4.25"/>
      <circle class="cls-1" cx="410.94" cy="73.43" r="4.25"/>
      <circle class="cls-1" cx="73.43" cy="888.24" r="4.25"/>
      <circle class="cls-1" cx="888.23" cy="1225.74" r="4.25"/>
      <circle class="cls-1" cx="1225.74" cy="410.94" r="4.25"/>
      <circle class="cls-1" cx="649.58" cy="649.59" r="170.08"/>
      <path class="cls-1" d="M1186.75,656.67v-14.17h111.91c-1.78-163.76-65.12-326.97-190.07-451.92C983.64,65.63,820.43,2.28,656.67.51v111.91h-14.17V.51c-163.76,1.78-326.97,65.12-451.92,190.07C65.63,315.53,2.28,478.74.51,642.5h111.91v14.17H.51c1.78,163.76,65.12,326.97,190.07,451.92,124.95,124.95,288.16,188.3,451.92,190.07v-111.91h14.17v111.91c163.76-1.78,326.97-65.12,451.92-190.07,124.95-124.95,188.3-288.16,190.07-451.92h-111.91ZM169.11,656.67h-31.18v-14.17h31.18v14.17ZM656.67,1161.24h-14.17v-31.18h14.17v31.18ZM656.67,169.11h-14.17v-31.18h14.17v31.18ZM1161.24,656.67h-31.18v-14.17h31.18v14.17Z"/>
    </g>
  </g>
</svg>