<?xml version="1.0" encoding="UTF-8"?>
<svg id="_레이어_2" data-name="레이어 2" xmlns="http://www.w3.org/2000/svg" viewBox="0 0 510.73 453.51">
  <defs>
    <style>
      .cls-1 {
        fill: none;
        stroke: #000;
        stroke-miterlimit: 10;
      }
    </style>
  </defs>
  <g id="_레이어_1-2" data-name="레이어 1">
    <path class="cls-1" d="M496.06,380.34v-15.59h-128.98v-8.5h128.98v-172.91h-109.47c-16.21,32.75-49.94,55.28-88.96,55.28s-72.75-22.53-88.96-55.28h-40.02v-8.5h36.29c-4.21-11.01-6.53-22.95-6.53-35.43,0-54.79,44.42-99.21,99.21-99.21s99.21,44.42,99.21,99.21c0,12.49-2.32,24.43-6.53,35.43h105.74V6.17h-240.94s0-5.67,0-5.67h-56.69v5.67H.68c69.95,226.33,259.82,399.99,495.38,446.73v-15.86h14.17v-56.69h-14.17Z"/>
  </g>
</svg>