<svg xmlns="http://www.w3.org/2000/svg"

     width="72.360mm"

     height="334.159mm"

     viewBox="0 0 72.360 334.159">

  <path d="M 36.180 10.000 L 38.746 19.817 L 41.287 29.635 L 43.780 39.452 L 46.199 49.270 L 48.521 59.087 L 50.725 68.905 L 52.788 78.722 L 54.692 88.540 L 56.417 98.357 L 57.948 108.175 L 59.269 117.992 L 60.367 127.810 L 61.233 137.627 L 61.857 147.445 L 62.234 157.262 L 62.360 167.080 L 62.234 176.897 L 61.857 186.715 L 61.233 196.532 L 60.367 206.350 L 59.269 216.167 L 57.948 225.984 L 56.417 235.802 L 54.692 245.619 L 52.788 255.437 L 50.725 265.254 L 48.521 275.072 L 46.199 284.889 L 43.780 294.707 L 41.287 304.524 L 38.746 314.342 L 36.180 324.159 L 36.180 324.159 L 33.614 314.342 L 31.072 304.524 L 28.580 294.707 L 26.161 284.889 L 23.839 275.072 L 21.635 265.254 L 19.572 255.437 L 17.668 245.619 L 15.943 235.802 L 14.412 225.984 L 13.091 216.167 L 11.993 206.350 L 11.127 196.532 L 10.503 186.715 L 10.126 176.897 L 10.000 167.080 L 10.126 157.262 L 10.503 147.445 L 11.127 137.627 L 11.993 127.810 L 13.091 117.992 L 14.412 108.175 L 15.943 98.357 L 17.668 88.540 L 19.572 78.722 L 21.635 68.905 L 23.839 59.087 L 26.161 49.270 L 28.580 39.452 L 31.072 29.635 L 33.614 19.817 L 36.180 10.000 Z"

        fill="none"

        stroke="black"

        stroke-width="0.3"/>

  <line x1="36.180" y1="10"

        x2="36.180" y2="324.159"

        stroke="gray" stroke-width="0.2" stroke-dasharray="2 2"/>

</svg>